ffmpeg started on 2025-05-12 at 13:26:35
Report written to "D:\Convert\FFMetrics\reports\ssim_report-6.txt"
Log level: 32
Command line:
ffmpeg -hide_banner -nostdin -i "G:\\\xc0\xed\xe8\xec\xe5\\\xce\xed\xe3\xee\xe8\xed\xe3\xe8\\!_35_\xcb\xe5\xf2\xee_2024\\DreamCast\\\xc0\xeb\xff \xe8\xed\xee\xe3\xe4\xe0 \xea\xee\xea\xe5\xf2\xed\xe8\xf7\xe0\xe5\xf2 \xf1\xee \xec\xed\xee\xe9 \xef\xee-\xf0\xf3\xf1\xf1\xea\xe8\\[DC] Roshidere - 12_Telegram_HEVC.mkv" -i "G:\\\xc0\xed\xe8\xec\xe5\\\xce\xed\xe3\xee\xe8\xed\xe3\xe8\\!_35_\xcb\xe5\xf2\xee_2024\\DreamCast\\\xc0\xeb\xff \xe8\xed\xee\xe3\xe4\xe0 \xea\xee\xea\xe5\xf2\xed\xe8\xf7\xe0\xe5\xf2 \xf1\xee \xec\xed\xee\xe9 \xef\xee-\xf0\xf3\xf1\xf1\xea\xe8\\[DC] Roshidere - 12_Telegram.mp4" -lavfi "[0:v]settb=AVTB,setpts=PTS-STARTPTS,format=pix_fmts=yuv420p10,fps=24000/1001,scale=1920:1080:flags=bicubic[main];[1:v]settb=AVTB,setpts=PTS-STARTPTS,format=pix_fmts=yuv420p,fps=24000/1001,scale=1920:1080:flags=bicubic[ref];[main][ref]ssim=eof_action=endall:stats_file='D\\:/Convert/FFMetrics/logs/ssim_logfile-6.txt'" -f null -
Input #0, matroska,webm, from 'G:\Аниме\Онгоинги\!_35_Лето_2024\DreamCast\Аля иногда кокетничает со мной по-русски\[DC] Roshidere - 12_Telegram_HEVC.mkv':
  Metadata:
    COMPATIBLE_BRANDS: isomiso2avc1mp41
    MAJOR_BRAND     : isom
    MINOR_VERSION   : 512
    ENCODER         : Lavf61.7.100
  Duration: 00:25:17.57, start: -0.021000, bitrate: 777 kb/s
  Stream #0:0: Video: hevc (Main 10), yuv420p10le(tv, bt709, progressive), 1920x1080 [SAR 1:1 DAR 16:9], 23.98 fps, 23.98 tbr, 1k tbn (default)
      Metadata:
        HANDLER_NAME    : VideoHandler
        VENDOR_ID       : [0][0][0][0]
        ENCODER         : Lavc61.19.100 libx265
        BPS             : 579378
        DURATION        : 00:25:16.556708333
        NUMBER_OF_FRAMES: 36361
        NUMBER_OF_BYTES : 109832554
        _STATISTICS_WRITING_APP: mkvpropedit v66.0.0 ('Josie') 64-bit
        _STATISTICS_WRITING_DATE_UTC: 2025-05-06 13:19:40
        _STATISTICS_TAGS: BPS DURATION NUMBER_OF_FRAMES NUMBER_OF_BYTES
  Stream #0:1: Audio: aac (LC), 48000 Hz, stereo, fltp (default)
      Metadata:
        HANDLER_NAME    : SoundHandler
        VENDOR_ID       : [0][0][0][0]
        ENCODER         : Lavc61.19.100 aac
        BPS             : 194164
        DURATION        : 00:25:17.568000000
        NUMBER_OF_FRAMES: 71137
        NUMBER_OF_BYTES : 36832140
        _STATISTICS_WRITING_APP: mkvpropedit v66.0.0 ('Josie') 64-bit
        _STATISTICS_WRITING_DATE_UTC: 2025-05-06 13:19:40
        _STATISTICS_TAGS: BPS DURATION NUMBER_OF_FRAMES NUMBER_OF_BYTES
Input #1, mov,mp4,m4a,3gp,3g2,mj2, from 'G:\Аниме\Онгоинги\!_35_Лето_2024\DreamCast\Аля иногда кокетничает со мной по-русски\[DC] Roshidere - 12_Telegram.mp4':
  Metadata:
    major_brand     : isom
    minor_version   : 512
    compatible_brands: isomiso2avc1mp41
    encoder         : Lavf61.1.100
  Duration: 00:25:17.51, start: 0.000000, bitrate: 3686 kb/s
  Stream #1:0[0x1](und): Video: h264 (High) (avc1 / 0x31637661), yuv420p(tv, bt709, progressive), 1920x1080 [SAR 1:1 DAR 16:9], 3540 kb/s, 23.98 fps, 23.98 tbr, 24k tbn (default)
      Metadata:
        handler_name    : VideoHandler
        vendor_id       : [0][0][0][0]
        encoder         : Lavc61.3.100 h264_qsv
  Stream #1:1[0x2](und): Audio: aac (HE-AACv2) (mp4a / 0x6134706D), 48000 Hz, stereo, fltp, 144 kb/s (default)
      Metadata:
        handler_name    : SoundHandler
        vendor_id       : [0][0][0][0]
Stream mapping:
  Stream #0:0 (hevc) -> settb:default
  Stream #1:0 (h264) -> settb:default
  ssim:default -> Stream #0:0 (wrapped_avframe)
  Stream #0:1 -> #0:1 (aac (native) -> pcm_s16le (native))
Output #0, null, to 'pipe:':
  Metadata:
    COMPATIBLE_BRANDS: isomiso2avc1mp41
    MAJOR_BRAND     : isom
    MINOR_VERSION   : 512
    encoder         : Lavf61.7.100
  Stream #0:0: Video: wrapped_avframe, yuv420p10le(tv, bt709, progressive), 1920x1080 [SAR 1:1 DAR 16:9], q=2-31, 200 kb/s, 23.98 fps, 23.98 tbn
      Metadata:
        encoder         : Lavc61.19.100 wrapped_avframe
  Stream #0:1: Audio: pcm_s16le, 48000 Hz, stereo, s16, 1536 kb/s (default)
      Metadata:
        HANDLER_NAME    : SoundHandler
        VENDOR_ID       : [0][0][0][0]
        _STATISTICS_TAGS: BPS DURATION NUMBER_OF_FRAMES NUMBER_OF_BYTES
        BPS             : 194164
        DURATION        : 00:25:17.568000000
        NUMBER_OF_FRAMES: 71137
        NUMBER_OF_BYTES : 36832140
        _STATISTICS_WRITING_APP: mkvpropedit v66.0.0 ('Josie') 64-bit
        _STATISTICS_WRITING_DATE_UTC: 2025-05-06 13:19:40
        encoder         : Lavc61.19.100 pcm_s16le
frame=  176 fps=0.0 q=-0.0 size=N/A time=00:00:07.34 bitrate=N/A speed=14.1x    frame=  348 fps=338 q=-0.0 size=N/A time=00:00:14.51 bitrate=N/A speed=14.1x    frame=  555 fps=358 q=-0.0 size=N/A time=00:00:23.14 bitrate=N/A speed=14.9x    frame=  761 fps=369 q=-0.0 size=N/A time=00:00:31.74 bitrate=N/A speed=15.4x    frame=  964 fps=373 q=-0.0 size=N/A time=00:00:40.20 bitrate=N/A speed=15.6x    frame= 1177 fps=380 q=-0.0 size=N/A time=00:00:49.09 bitrate=N/A speed=15.9x    frame= 1384 fps=383 q=-0.0 size=N/A time=00:00:57.72 bitrate=N/A speed=  16x    frame= 1556 fps=376 q=-0.0 size=N/A time=00:01:04.89 bitrate=N/A speed=15.7x    frame= 1719 fps=370 q=-0.0 size=N/A time=00:01:11.69 bitrate=N/A speed=15.4x    frame= 1923 fps=373 q=-0.0 size=N/A time=00:01:20.20 bitrate=N/A speed=15.6x    frame= 2118 fps=373 q=-0.0 size=N/A time=00:01:28.33 bitrate=N/A speed=15.6x    frame= 2368 fps=383 q=-0.0 size=N/A time=00:01:38.76 bitrate=N/A speed=  16x    frame= 2656 fps=396 q=-0.0 size=N/A time=00:01:50.77 bitrate=N/A speed=16.5x    frame= 2936 fps=407 q=-0.0 size=N/A time=00:02:02.45 bitrate=N/A speed=  17x    frame= 3226 fps=417 q=-0.0 size=N/A time=00:02:14.55 bitrate=N/A speed=17.4x    frame= 3503 fps=425 q=-0.0 size=N/A time=00:02:26.10 bitrate=N/A speed=17.7x    frame= 3782 fps=431 q=-0.0 size=N/A time=00:02:37.74 bitrate=N/A speed=  18x    frame= 4057 fps=436 q=-0.0 size=N/A time=00:02:49.21 bitrate=N/A speed=18.2x    frame= 4337 fps=442 q=-0.0 size=N/A time=00:03:00.88 bitrate=N/A speed=18.4x    frame= 4621 fps=447 q=-0.0 size=N/A time=00:03:12.73 bitrate=N/A speed=18.6x    frame= 4899 fps=452 q=-0.0 size=N/A time=00:03:24.32 bitrate=N/A speed=18.8x    frame= 5168 fps=455 q=-0.0 size=N/A time=00:03:35.54 bitrate=N/A speed=  19x    frame= 5430 fps=457 q=-0.0 size=N/A time=00:03:46.47 bitrate=N/A speed=19.1x    frame= 5688 fps=459 q=-0.0 size=N/A time=00:03:57.23 bitrate=N/A speed=19.1x    frame= 5951 fps=461 q=-0.0 size=N/A time=00:04:08.20 bitrate=N/A speed=19.2x    frame= 6219 fps=463 q=-0.0 size=N/A time=00:04:19.38 bitrate=N/A speed=19.3x    frame= 6497 fps=466 q=-0.0 size=N/A time=00:04:30.97 bitrate=N/A speed=19.4x    frame= 6777 fps=468 q=-0.0 size=N/A time=00:04:42.65 bitrate=N/A speed=19.5x    frame= 7026 fps=469 q=-0.0 size=N/A time=00:04:53.04 bitrate=N/A speed=19.5x    frame= 7291 fps=470 q=-0.0 size=N/A time=00:05:04.09 bitrate=N/A speed=19.6x    frame= 7549 fps=471 q=-0.0 size=N/A time=00:05:14.85 bitrate=N/A speed=19.7x    frame= 7803 fps=472 q=-0.0 size=N/A time=00:05:25.45 bitrate=N/A speed=19.7x    frame= 8091 fps=474 q=-0.0 size=N/A time=00:05:37.46 bitrate=N/A speed=19.8x    frame= 8367 fps=476 q=-0.0 size=N/A time=00:05:48.97 bitrate=N/A speed=19.8x    frame= 8632 fps=477 q=-0.0 size=N/A time=00:06:00.02 bitrate=N/A speed=19.9x    frame= 8873 fps=477 q=-0.0 size=N/A time=00:06:10.07 bitrate=N/A speed=19.9x    frame= 9113 fps=476 q=-0.0 size=N/A time=00:06:20.08 bitrate=N/A speed=19.9x    frame= 9355 fps=476 q=-0.0 size=N/A time=00:06:30.18 bitrate=N/A speed=19.9x    frame= 9607 fps=476 q=-0.0 size=N/A time=00:06:40.69 bitrate=N/A speed=19.9x    frame= 9869 fps=477 q=-0.0 size=N/A time=00:06:51.61 bitrate=N/A speed=19.9x    frame=10152 fps=479 q=-0.0 size=N/A time=00:07:03.42 bitrate=N/A speed=  20x    frame=10402 fps=479 q=-0.0 size=N/A time=00:07:13.85 bitrate=N/A speed=  20x    frame=10654 fps=479 q=-0.0 size=N/A time=00:07:24.36 bitrate=N/A speed=  20x    frame=10907 fps=480 q=-0.0 size=N/A time=00:07:34.91 bitrate=N/A speed=  20x    frame=11183 fps=481 q=-0.0 size=N/A time=00:07:46.42 bitrate=N/A speed=20.1x    frame=11448 fps=482 q=-0.0 size=N/A time=00:07:57.47 bitrate=N/A speed=20.1x    frame=11723 fps=483 q=-0.0 size=N/A time=00:08:08.94 bitrate=N/A speed=20.1x    frame=11998 fps=484 q=-0.0 size=N/A time=00:08:20.41 bitrate=N/A speed=20.2x    frame=12271 fps=485 q=-0.0 size=N/A time=00:08:31.80 bitrate=N/A speed=20.2x    frame=12558 fps=486 q=-0.0 size=N/A time=00:08:43.77 bitrate=N/A speed=20.3x    frame=12807 fps=486 q=-0.0 size=N/A time=00:08:54.15 bitrate=N/A speed=20.3x    frame=13067 fps=486 q=-0.0 size=N/A time=00:09:05.00 bitrate=N/A speed=20.3x    frame=13334 fps=487 q=-0.0 size=N/A time=00:09:16.13 bitrate=N/A speed=20.3x    frame=13613 fps=488 q=-0.0 size=N/A time=00:09:27.77 bitrate=N/A speed=20.4x    frame=13904 fps=489 q=-0.0 size=N/A time=00:09:39.91 bitrate=N/A speed=20.4x    frame=14179 fps=490 q=-0.0 size=N/A time=00:09:51.38 bitrate=N/A speed=20.4x    frame=14468 fps=491 q=-0.0 size=N/A time=00:10:03.43 bitrate=N/A speed=20.5x    frame=14748 fps=492 q=-0.0 size=N/A time=00:10:15.11 bitrate=N/A speed=20.5x    frame=15001 fps=492 q=-0.0 size=N/A time=00:10:25.66 bitrate=N/A speed=20.5x    frame=15294 fps=493 q=-0.0 size=N/A time=00:10:37.88 bitrate=N/A speed=20.6x    frame=15550 fps=493 q=-0.0 size=N/A time=00:10:48.56 bitrate=N/A speed=20.6x    frame=15805 fps=493 q=-0.0 size=N/A time=00:10:59.20 bitrate=N/A speed=20.6x    frame=16057 fps=493 q=-0.0 size=N/A time=00:11:09.71 bitrate=N/A speed=20.6x    frame=16341 fps=494 q=-0.0 size=N/A time=00:11:21.59 bitrate=N/A speed=20.6x    frame=16623 fps=495 q=-0.0 size=N/A time=00:11:33.31 bitrate=N/A speed=20.6x    frame=16896 fps=496 q=-0.0 size=N/A time=00:11:44.70 bitrate=N/A speed=20.7x    frame=17170 fps=496 q=-0.0 size=N/A time=00:11:56.13 bitrate=N/A speed=20.7x    frame=17445 fps=497 q=-0.0 size=N/A time=00:12:07.60 bitrate=N/A speed=20.7x    frame=17732 fps=497 q=-0.0 size=N/A time=00:12:19.57 bitrate=N/A speed=20.7x    frame=18007 fps=498 q=-0.0 size=N/A time=00:12:31.08 bitrate=N/A speed=20.8x    frame=18286 fps=499 q=-0.0 size=N/A time=00:12:42.67 bitrate=N/A speed=20.8x    frame=18541 fps=499 q=-0.0 size=N/A time=00:12:53.31 bitrate=N/A speed=20.8x    frame=18812 fps=499 q=-0.0 size=N/A time=00:13:04.61 bitrate=N/A speed=20.8x    frame=19073 fps=499 q=-0.0 size=N/A time=00:13:15.50 bitrate=N/A speed=20.8x    frame=19338 fps=499 q=-0.0 size=N/A time=00:13:26.55 bitrate=N/A speed=20.8x    frame=19620 fps=500 q=-0.0 size=N/A time=00:13:38.31 bitrate=N/A speed=20.8x    frame=19905 fps=500 q=-0.0 size=N/A time=00:13:50.20 bitrate=N/A speed=20.9x    frame=20175 fps=501 q=-0.0 size=N/A time=00:14:01.46 bitrate=N/A speed=20.9x    frame=20462 fps=501 q=-0.0 size=N/A time=00:14:13.43 bitrate=N/A speed=20.9x    frame=20739 fps=502 q=-0.0 size=N/A time=00:14:24.98 bitrate=N/A speed=20.9x    frame=21032 fps=503 q=-0.0 size=N/A time=00:14:37.20 bitrate=N/A speed=  21x    frame=21290 fps=503 q=-0.0 size=N/A time=00:14:47.97 bitrate=N/A speed=  21x    frame=21574 fps=503 q=-0.0 size=N/A time=00:14:59.85 bitrate=N/A speed=  21x    frame=21859 fps=504 q=-0.0 size=N/A time=00:15:11.70 bitrate=N/A speed=  21x    frame=22139 fps=504 q=-0.0 size=N/A time=00:15:23.38 bitrate=N/A speed=  21x    frame=22399 fps=504 q=-0.0 size=N/A time=00:15:34.22 bitrate=N/A speed=  21x    frame=22661 fps=504 q=-0.0 size=N/A time=00:15:45.15 bitrate=N/A speed=  21x    frame=22918 fps=504 q=-0.0 size=N/A time=00:15:55.87 bitrate=N/A speed=  21x    frame=23147 fps=504 q=-0.0 size=N/A time=00:16:05.42 bitrate=N/A speed=  21x    frame=23383 fps=503 q=-0.0 size=N/A time=00:16:15.26 bitrate=N/A speed=  21x    frame=23670 fps=504 q=-0.0 size=N/A time=00:16:27.23 bitrate=N/A speed=  21x    frame=23940 fps=504 q=-0.0 size=N/A time=00:16:38.49 bitrate=N/A speed=  21x    frame=24210 fps=504 q=-0.0 size=N/A time=00:16:49.75 bitrate=N/A speed=  21x    frame=24476 fps=504 q=-0.0 size=N/A time=00:17:00.85 bitrate=N/A speed=  21x    frame=24758 fps=505 q=-0.0 size=N/A time=00:17:12.61 bitrate=N/A speed=  21x    frame=25016 fps=505 q=-0.0 size=N/A time=00:17:23.37 bitrate=N/A speed=  21x    frame=25293 fps=505 q=-0.0 size=N/A time=00:17:34.92 bitrate=N/A speed=21.1x    frame=25579 fps=506 q=-0.0 size=N/A time=00:17:46.85 bitrate=N/A speed=21.1x    frame=25859 fps=506 q=-0.0 size=N/A time=00:17:58.53 bitrate=N/A speed=21.1x    frame=26129 fps=506 q=-0.0 size=N/A time=00:18:09.79 bitrate=N/A speed=21.1x    frame=26390 fps=506 q=-0.0 size=N/A time=00:18:20.68 bitrate=N/A speed=21.1x    frame=26679 fps=507 q=-0.0 size=N/A time=00:18:32.73 bitrate=N/A speed=21.1x    frame=26959 fps=507 q=-0.0 size=N/A time=00:18:44.41 bitrate=N/A speed=21.1x    frame=27254 fps=508 q=-0.0 size=N/A time=00:18:56.71 bitrate=N/A speed=21.2x    frame=27530 fps=508 q=-0.0 size=N/A time=00:19:08.23 bitrate=N/A speed=21.2x    frame=27808 fps=508 q=-0.0 size=N/A time=00:19:19.82 bitrate=N/A speed=21.2x    frame=28076 fps=508 q=-0.0 size=N/A time=00:19:31.00 bitrate=N/A speed=21.2x    frame=28344 fps=508 q=-0.0 size=N/A time=00:19:42.18 bitrate=N/A speed=21.2x    frame=28628 fps=509 q=-0.0 size=N/A time=00:19:54.02 bitrate=N/A speed=21.2x    frame=28899 fps=509 q=-0.0 size=N/A time=00:20:05.32 bitrate=N/A speed=21.2x    frame=29186 fps=509 q=-0.0 size=N/A time=00:20:17.29 bitrate=N/A speed=21.2x    frame=29464 fps=509 q=-0.0 size=N/A time=00:20:28.89 bitrate=N/A speed=21.2x    frame=29742 fps=510 q=-0.0 size=N/A time=00:20:40.48 bitrate=N/A speed=21.3x    frame=30023 fps=510 q=-0.0 size=N/A time=00:20:52.20 bitrate=N/A speed=21.3x    frame=30298 fps=510 q=-0.0 size=N/A time=00:21:03.67 bitrate=N/A speed=21.3x    frame=30563 fps=510 q=-0.0 size=N/A time=00:21:14.73 bitrate=N/A speed=21.3x    frame=30846 fps=510 q=-0.0 size=N/A time=00:21:26.53 bitrate=N/A speed=21.3x    frame=31112 fps=511 q=-0.0 size=N/A time=00:21:37.62 bitrate=N/A speed=21.3x    frame=31360 fps=510 q=-0.0 size=N/A time=00:21:47.97 bitrate=N/A speed=21.3x    frame=31603 fps=510 q=-0.0 size=N/A time=00:21:58.10 bitrate=N/A speed=21.3x    frame=31823 fps=509 q=-0.0 size=N/A time=00:22:07.28 bitrate=N/A speed=21.2x    frame=32056 fps=509 q=-0.0 size=N/A time=00:22:17.00 bitrate=N/A speed=21.2x    frame=32326 fps=509 q=-0.0 size=N/A time=00:22:28.26 bitrate=N/A speed=21.2x    frame=32611 fps=509 q=-0.0 size=N/A time=00:22:40.15 bitrate=N/A speed=21.2x    frame=32866 fps=509 q=-0.0 size=N/A time=00:22:50.78 bitrate=N/A speed=21.2x    frame=33143 fps=509 q=-0.0 size=N/A time=00:23:02.33 bitrate=N/A speed=21.2x    frame=33401 fps=509 q=-0.0 size=N/A time=00:23:13.10 bitrate=N/A speed=21.2x    frame=33670 fps=509 q=-0.0 size=N/A time=00:23:24.31 bitrate=N/A speed=21.2x    frame=33945 fps=510 q=-0.0 size=N/A time=00:23:35.78 bitrate=N/A speed=21.3x    frame=34186 fps=509 q=-0.0 size=N/A time=00:23:45.84 bitrate=N/A speed=21.2x    frame=34404 fps=509 q=-0.0 size=N/A time=00:23:54.93 bitrate=N/A speed=21.2x    frame=34613 fps=508 q=-0.0 size=N/A time=00:24:03.65 bitrate=N/A speed=21.2x    frame=34776 fps=506 q=-0.0 size=N/A time=00:24:10.44 bitrate=N/A speed=21.1x    frame=34933 fps=505 q=-0.0 size=N/A time=00:24:16.99 bitrate=N/A speed=21.1x    frame=35099 fps=504 q=-0.0 size=N/A time=00:24:23.92 bitrate=N/A speed=  21x    frame=35303 fps=503 q=-0.0 size=N/A time=00:24:32.42 bitrate=N/A speed=  21x    frame=35495 fps=502 q=-0.0 size=N/A time=00:24:40.43 bitrate=N/A speed=20.9x    frame=35647 fps=500 q=-0.0 size=N/A time=00:24:46.77 bitrate=N/A speed=20.9x    frame=35807 fps=499 q=-0.0 size=N/A time=00:24:53.45 bitrate=N/A speed=20.8x    frame=35992 fps=498 q=-0.0 size=N/A time=00:25:01.16 bitrate=N/A speed=20.8x    frame=36131 fps=496 q=-0.0 size=N/A time=00:25:06.96 bitrate=N/A speed=20.7x    frame=36275 fps=495 q=-0.0 size=N/A time=00:25:12.96 bitrate=N/A speed=20.6x    [Parsed_ssim_10 @ 0000022310959900] SSIM Y:0.995796 (23.763059) U:0.994620 (22.692340) V:0.994953 (22.969706) All:0.995459 (23.428809)
[out#0/null @ 00000223109de900] video:15624KiB audio:284548KiB subtitle:0KiB other streams:0KiB global headers:0KiB muxing overhead: unknown
frame=36361 fps=495 q=-0.0 Lsize=N/A time=00:25:16.55 bitrate=N/A speed=20.6x    
